<svg width="128" height="128" viewBox="0 0 128 128" fill="none" xmlns="http://www.w3.org/2000/svg">
<rect width="128" height="128" fill="#7952B5"/>
<path fill-rule="evenodd" clip-rule="evenodd" d="M108.114 63.6793C110.469 62.4623 112.557 60.7909 114.257 58.7624C115.957 56.7339 117.236 54.3887 118.018 51.8634C131.016 6.42518 10.6612 -5.36607 14.0285 33.1652C14.796 41.6262 24.2046 47.8425 35.3215 48.3112C44.4577 49.1006 48.8896 49.1499 56.9611 52.9981V24.4821H71.0492V60.8425C82.4632 67.1082 96.1304 70.4136 108.188 63.6053L108.114 63.6793ZM20.2183 64C30.122 58.6471 38.7631 60.0531 48.7163 64C51.5884 65.0854 54.2871 66.4668 56.9364 67.6262L71.0244 74.3852C77.9076 77.2914 85.2132 79.0819 92.6641 79.6888C103.781 80.1575 113.19 86.3738 113.957 94.8348C117.423 133.366 -2.93165 121.575 9.96796 76.1366C10.7653 73.5553 12.0747 71.1598 13.8184 69.092C15.5621 67.0242 17.7047 65.3262 20.1193 64.0987L20.2183 64ZM71.0244 84.0057L56.9364 76.9753V103.419H71.0244V84.0057Z" fill="white"/>
</svg>
