<svg width="328" height="328" viewBox="0 0 328 328" fill="none" xmlns="http://www.w3.org/2000/svg">
<path fill-rule="evenodd" clip-rule="evenodd" d="M295.251 162.867C302.265 159.175 308.486 154.103 313.551 147.949C318.616 141.794 322.424 134.679 324.754 127.017C363.475 -10.8463 4.94862 -46.6218 14.9794 70.2848C17.2658 95.9563 45.293 114.817 78.4093 116.239C105.625 118.634 118.827 118.784 142.872 130.459V43.9396H184.839V154.26C218.84 173.27 259.553 183.299 295.473 162.642L295.251 162.867ZM33.4183 163.84C62.9207 147.599 88.6614 151.865 118.311 163.84C126.867 167.133 134.906 171.324 142.798 174.842L184.765 195.349C205.27 204.167 227.032 209.6 249.228 211.441C282.344 212.863 310.371 231.724 312.658 257.395C322.983 374.302 -35.5433 338.526 2.88346 200.663C5.25875 192.832 9.15915 185.563 14.3536 179.29C19.548 173.016 25.9306 167.864 33.1233 164.139L33.4183 163.84ZM184.765 224.539L142.798 203.208V283.441H184.765V224.539Z" fill="white"/>
</svg>
